<svg xmlns="http://www.w3.org/2000/svg"
width="350" height="550" viewBox="-75 -75 350 550"
style="background-color:#F5F5F5;"><line x1="50" y1="0" x2="0" y2="100"
stroke="black" stroke-width="1"/><line x1="150" y1="0" x2="100" y2="100"
stroke="black" stroke-width="1"/><line x1="150" y1="0" x2="200" y2="100"
stroke="black" stroke-width="1"/><line x1="100" y1="100" x2="200" y2="200"
stroke="black" stroke-width="1"/><line x1="200" y1="100" x2="200" y2="200"
stroke="black" stroke-width="1"/><line x1="200" y1="200" x2="100" y2="400"
stroke="black" stroke-width="1"/><line x1="0" y1="100" x2="0" y2="200"
stroke="black" stroke-width="1"/><line x1="0" y1="100" x2="100" y2="200"
stroke="black" stroke-width="1"/><line x1="0" y1="200" x2="100" y2="300"
stroke="black" stroke-width="1"/><line x1="100" y1="200" x2="100" y2="300"
stroke="black" stroke-width="1"/><line x1="100" y1="300" x2="100" y2="400"
stroke="black" stroke-width="1"/><circle cx="50" cy="0" r="45"
fill="#2E95A3" opacity="0.9"/><text x="50" y="0" fill="black" 
text-anchor="middle" alignment-baseline="central" 
font-family="Helvetica">a</text><circle cx="150" cy="0" r="45"
fill="#2E95A3" opacity="0.9"/><text x="150" y="0" fill="black" 
text-anchor="middle" alignment-baseline="central" 
font-family="Helvetica">b</text><circle cx="0" cy="100" r="45"
fill="#50B8B4" opacity="0.9"/><text x="0" y="100" fill="black" 
text-anchor="middle" alignment-baseline="central" 
font-family="Helvetica">g</text><circle cx="100" cy="100" r="45"
fill="#50B8B4" opacity="0.9"/><text x="100" y="100" fill="black" 
text-anchor="middle" alignment-baseline="central" 
font-family="Helvetica">c</text><circle cx="200" cy="100" r="45"
fill="#50B8B4" opacity="0.9"/><text x="200" y="100" fill="black" 
text-anchor="middle" alignment-baseline="central" 
font-family="Helvetica">d</text><circle cx="0" cy="200" r="45"
fill="#C6FFFA" opacity="0.9"/><text x="0" y="200" fill="black" 
text-anchor="middle" alignment-baseline="central" 
font-family="Helvetica">h</text><circle cx="100" cy="200" r="45"
fill="#C6FFFA" opacity="0.9"/><text x="100" y="200" fill="black" 
text-anchor="middle" alignment-baseline="central" 
font-family="Helvetica">i</text><circle cx="200" cy="200" r="45"
fill="#C6FFFA" opacity="0.9"/><text x="200" y="200" fill="black" 
text-anchor="middle" alignment-baseline="central" 
font-family="Helvetica">e</text><circle cx="100" cy="300" r="45"
fill="#E2FFA8" opacity="0.9"/><text x="100" y="300" fill="black" 
text-anchor="middle" alignment-baseline="central" 
font-family="Helvetica">j</text><circle cx="100" cy="400" r="45"
fill="#D6E055" opacity="0.9"/><text x="100" y="400" fill="black" 
text-anchor="middle" alignment-baseline="central" 
font-family="Helvetica">f</text></svg>